<?xml version="1.0" encoding="UTF-8"?>
<svg width="1800px" height="900px" viewBox="0 0 1800 900" version="1.1" xmlns="http://www.w3.org/2000/svg" xmlns:xlink="http://www.w3.org/1999/xlink">
    <!-- Generator: Sketch 52.6 (67491) - http://www.bohemiancoding.com/sketch -->
    <title>Artboard</title>
    <desc>Created with Sketch.</desc>
    <defs>
        <circle id="path-1" cx="902" cy="742" r="350"></circle>
        <filter x="-12.4%" y="-11.1%" width="124.7%" height="125.7%" filterUnits="objectBoundingBox" id="filter-2">
            <feMorphology radius="3.5" operator="erode" in="SourceAlpha" result="shadowSpreadOuter1"></feMorphology>
            <feOffset dx="0" dy="11" in="shadowSpreadOuter1" result="shadowOffsetOuter1"></feOffset>
            <feGaussianBlur stdDeviation="7.5" in="shadowOffsetOuter1" result="shadowBlurOuter1"></feGaussianBlur>
            <feColorMatrix values="0 0 0 0 0   0 0 0 0 0   0 0 0 0 0  0 0 0 0.2 0" type="matrix" in="shadowBlurOuter1" result="shadowMatrixOuter1"></feColorMatrix>
            <feMorphology radius="4" operator="dilate" in="SourceAlpha" result="shadowSpreadOuter2"></feMorphology>
            <feOffset dx="0" dy="9" in="shadowSpreadOuter2" result="shadowOffsetOuter2"></feOffset>
            <feGaussianBlur stdDeviation="23" in="shadowOffsetOuter2" result="shadowBlurOuter2"></feGaussianBlur>
            <feColorMatrix values="0 0 0 0 0   0 0 0 0 0   0 0 0 0 0  0 0 0 0.12 0" type="matrix" in="shadowBlurOuter2" result="shadowMatrixOuter2"></feColorMatrix>
            <feMorphology radius="1.5" operator="dilate" in="SourceAlpha" result="shadowSpreadOuter3"></feMorphology>
            <feOffset dx="0" dy="24" in="shadowSpreadOuter3" result="shadowOffsetOuter3"></feOffset>
            <feGaussianBlur stdDeviation="19" in="shadowOffsetOuter3" result="shadowBlurOuter3"></feGaussianBlur>
            <feColorMatrix values="0 0 0 0 0   0 0 0 0 0   0 0 0 0 0  0 0 0 0.14 0" type="matrix" in="shadowBlurOuter3" result="shadowMatrixOuter3"></feColorMatrix>
            <feMerge>
                <feMergeNode in="shadowMatrixOuter1"></feMergeNode>
                <feMergeNode in="shadowMatrixOuter2"></feMergeNode>
                <feMergeNode in="shadowMatrixOuter3"></feMergeNode>
            </feMerge>
        </filter>
        <polygon id="path-3" points="0 584.751825 838.400587 584.751825 838.400587 0.569414072 0 0.569414072"></polygon>
        <path d="M3.16194604,0.570877253 C1.08044631,1.7970102 1.1809325,3.80677661 0.403702552,7.64502108 C-0.117185066,10.2045005 -0.117185066,12.3838592 0.403702552,14.1811479 L5.80124668,14.1811479 C4.6241227,11.7854128 4.27344639,9.6080034 4.7410148,7.64502108 C5.44441816,4.70152227 9.04551523,4.28436416 8.49796801,2.8730442 C8.06731289,1.7599728 6.285221,0.204401904 4.52978872,0.204401904 C4.06222031,0.204401904 3.59875337,0.313564774 3.16194604,0.570877253" id="path-5"></path>
    </defs>
    <g id="Artboard" stroke="none" stroke-width="1" fill="none" fill-rule="evenodd">
        <rect id="Rectangle" stroke="#979797" fill="#BF5655" x="0.5" y="0.5" width="1799" height="899"></rect>
        <g id="Oval">
            <use fill="black" fill-opacity="1" filter="url(#filter-2)" xlink:href="#path-1"></use>
            <use fill="#FFC668" fill-rule="evenodd" xlink:href="#path-1"></use>
        </g>
        <circle id="Oval" stroke-opacity="0.25" stroke="#FFC668" stroke-width="30" cx="902" cy="742" r="388"></circle>
        <circle id="Oval" stroke-opacity="0.1" stroke="#FFC668" stroke-width="20" cx="902" cy="742" r="454"></circle>
        <circle id="Oval" stroke-opacity="0.05" stroke="#FFC668" stroke-width="10" cx="902" cy="742" r="516"></circle>
        <g id="Group" transform="translate(552.000000, 507.000000)">
            <g id="Group-124">
                <g id="Group-93">
                    <path d="M239.96727,176.724655 C239.96727,176.724655 227.912381,43.9572326 332.86489,11.2015443 L331.96945,19.2730367 C331.96945,19.2730367 373.046576,-1.86622107 399.624089,3.30643606 L397.394117,10.6532196 C397.394117,10.6532196 425.246721,8.85870257 436.124308,11.0807595 C450.426426,14.0026014 465.719857,17.7066687 482.75815,40.1170428 L473.721297,40.5349965 C473.721297,40.5349965 541.191863,108.291437 446.461179,169.203405 C446.461179,169.203405 453.277646,151.963771 452.596958,140.471959 C451.914353,128.978231 453.034133,109.648828 421.292978,110.755063 L423.973547,103.170544 C423.973547,103.170544 391.260255,104.894124 385.12831,116.387853 C378.99253,127.879664 384.445704,146.842878 393.304236,159.485021 C402.164685,172.127164 422.535473,199.363178 428.06151,211.152159 C435.49539,227.009478 438.452069,240.43768 437.602647,237.586775 L443.537096,229.561296 C443.537096,229.561296 456.683004,266.891469 454.64094,280.108778 C452.596958,293.324169 451.233665,296.773246 451.233665,296.773246 L459.118142,294.825352 C459.118142,294.825352 451.233665,377.330958 423.290941,389.397935 C423.290941,389.397935 413.749804,414.107055 372.860586,435.367098 L311.525799,450.883152 L239.96727,176.724655 Z" id="Fill-1" fill="#BF5655"></path>
                    <path d="M241.864185,176.399878 L312.899255,448.558715 L372.172803,433.564145 C411.658462,412.971295 421.410517,388.944705 421.504471,388.703135 L421.79592,387.957337 L422.532214,387.637161 C446.346708,377.353198 455.255093,311.563825 456.911754,297.343811 L448.083901,299.527523 L449.451029,296.06886 C449.458699,296.045853 450.789396,292.468323 452.745176,279.814676 C454.338561,269.51921 446.043754,243.128689 442.899167,233.649958 L439.637617,238.061479 C439.639534,238.651982 439.466965,238.872463 439.257965,239.142791 L438.540846,240.068807 L437.38847,239.855996 C436.211167,239.635516 435.910131,238.621307 435.764406,238.132416 L435.492131,237.215985 L435.586085,237.087532 C434.73091,233.75157 431.728213,223.490614 426.324892,211.96621 C422.062443,202.874757 408.619334,184.156947 398.802086,170.491009 C396.088921,166.71217 393.644197,163.311023 391.734435,160.584738 C382.603628,147.555317 376.820656,127.878897 383.435793,115.485993 C390.002995,103.179364 422.491948,101.329247 423.872498,101.256393 L426.73714,101.10685 L424.02014,108.792981 C452.998277,108.879256 453.870708,127.15994 454.399919,138.216543 C454.434433,138.954672 454.468946,139.669795 454.509212,140.358076 C454.973231,148.161158 452.19679,158.278323 450.18924,164.428762 C477.292129,145.84324 492.273018,124.943635 494.735,102.245678 C498.39921,68.4681119 472.625101,42.1504453 472.362413,41.8877863 L469.307946,38.8202358 L478.948789,38.3735237 C462.767588,18.4804583 448.44246,15.554782 435.739479,12.9588673 C425.239626,10.8154164 397.795435,12.5504997 397.517407,12.5677546 L394.756307,12.746056 L397.155013,4.83944445 C371.492115,1.30025799 333.241282,20.7753696 332.848208,20.9785948 L329.671025,22.6120655 L330.631658,13.9404835 C289.334027,27.8019776 261.847652,59.0104701 248.908827,106.747308 C239.35235,142.010719 241.664772,173.9305 241.864185,176.399878 Z M310.151576,453.207972 L309.670301,451.367441 L238.071506,177.055567 L238.058084,176.898355 C238.027405,176.562842 235.130167,142.932902 245.208185,105.744603 C254.553744,71.2615001 277.248459,26.5500335 332.294071,9.3717504 L335.09352,8.49749849 L334.261355,16.0149146 C344.519612,11.1451781 377.087179,-3.03073995 399.990894,1.42487723 L402.077059,1.82941046 L400.027325,8.58185613 C407.39793,8.18882621 427.429333,7.34908425 436.508369,9.20303512 C449.776992,11.9139829 466.289909,15.2863713 484.285,38.9563583 L486.493881,41.8628625 L477.867358,42.261644 C484.77011,50.3810669 501.702944,73.579418 498.546853,102.659797 C495.812596,127.861642 478.638165,150.7935 447.499084,170.816936 L442.492672,174.035947 L444.678543,168.499018 C444.745653,168.330303 451.330112,151.516292 450.68202,140.584308 C450.641754,139.884523 450.605323,139.154063 450.570809,138.400596 C449.999414,126.502334 449.207515,111.672644 421.360663,112.671515 L418.547792,112.769294 L421.190012,105.292139 C410.920251,106.191315 390.990472,109.473594 386.820059,117.290096 C380.994904,128.202907 386.622564,146.608211 394.875187,158.385688 C396.777279,161.10047 399.212417,164.490113 401.917912,168.255532 C411.821444,182.042254 425.385351,200.924945 429.79736,210.338491 C433.35803,217.93643 435.833433,224.840336 437.283011,229.294036 C437.779626,230.818225 438.180369,232.087424 438.50058,233.149564 L444.145497,225.515197 L445.345809,228.924013 C445.888442,230.467374 458.627854,266.865779 456.535937,280.401346 C455.47368,287.266907 454.583992,291.559561 453.964662,294.122883 L461.285414,292.313028 L461.026561,295.006721 C460.704432,298.39253 452.835295,377.445225 424.766021,390.833166 C422.798737,395.238935 411.35359,417.515104 373.745097,437.068821 L373.329014,437.226033 L310.151576,453.207972 Z" id="Fill-3" fill="#1E1F1C"></path>
                    <path d="M393.304811,159.485596 C393.304811,159.485596 422.536049,199.361836 428.060168,211.152734 C435.494048,227.008136 438.450727,240.438255 437.603222,237.585433 L443.537672,229.561872 C443.537672,229.561872 456.683579,266.892045 454.641515,280.109353 C452.595616,293.324744 451.232323,296.773821 451.232323,296.773821 L459.118717,294.82401 C459.118717,294.82401 451.232323,377.329616 423.291516,389.396593 C423.291516,389.396593 413.750379,414.10763 372.859243,435.367673 L311.526375,450.883727 C311.526375,450.883727 278.699954,349.788764 337.540162,345.538289 C430.529819,338.822271 422.219672,279.306038 393.304811,159.485596" id="Fill-5" fill="#020303"></path>
                    <path d="M346.690911,364.651622 C350.270754,356.831285 353.206342,346.953772 351.187287,337.939008 C346.642975,317.647161 326.661425,304.339743 326.661425,304.339743 C326.661425,304.339743 303.278353,268.598945 297.767656,268.598945 C292.364335,268.598945 280.180978,283.309767 269.174923,304.378088 C269.174923,304.374253 269.18451,304.339743 269.18451,304.339743 C269.18451,304.339743 249.204878,317.647161 244.658649,337.939008 C242.683695,346.756299 212.888733,366.329188 216.361201,374.065167 C215.521366,379.81299 247.594236,375.616198 247.594236,381.227898 C247.594236,394.788389 283.967904,460.23458 283.93339,453.4227 C288.33006,454.814601 292.966408,455.514386 297.767656,455.514386 C302.806665,455.514386 307.665435,454.75325 312.253848,453.217558 C312.19249,460.138719 347.942993,394.50464 347.942993,381.227898 C347.942993,375.781078 347.484727,370.226895 346.690911,364.651622" id="fill" fill="#D46056"></path>
                    <path d="M283.934349,451.504714 C284.12801,451.504714 284.323588,451.53539 284.511496,451.594824 C293.122679,454.321109 303.158513,454.238669 311.645064,451.399267 C311.89433,451.31491 312.158935,451.2804 312.413953,451.309158 C318.125981,444.259543 346.024603,392.964346 346.024603,381.229048 C346.024603,376.152252 345.610438,370.665171 344.791695,364.921183 C344.739924,364.558828 344.79553,364.186888 344.947007,363.853292 C349.374355,354.180921 350.885291,345.365548 349.316833,338.358112 C344.998778,319.080474 325.79187,306.064473 325.59821,305.934103 C325.383457,305.790311 325.197467,305.606258 325.057494,305.389612 C314.411917,289.118174 300.922789,271.155748 297.695752,270.511563 C294.104404,270.517314 282.720615,282.593877 270.872808,305.264993 C270.673396,305.64652 270.360854,305.93602 269.996542,306.10857 C267.70713,307.720951 250.5768,320.288322 246.529103,338.358112 C245.528204,342.82715 239.407764,348.64591 232.320939,355.383018 C226.112297,361.284218 216.730306,370.205038 218.110857,373.280258 C218.222068,373.527579 218.279591,373.79599 218.279591,374.066318 C219.756012,375.220484 227.343287,375.577086 231.933617,375.791815 C241.7547,376.25003 249.510708,376.614302 249.510708,381.229048 C249.510708,393.056373 277.98456,444.554795 283.757945,451.512383 C283.817386,451.508549 283.874909,451.504714 283.934349,451.504714 Z M297.768615,457.430839 C293.224303,457.430839 288.802707,456.824997 284.603533,455.626735 C284.202789,455.81654 283.412808,456.035103 282.471349,455.494447 C277.411248,452.584109 245.996057,394.931413 245.679681,381.432273 C244.287626,380.209088 236.470259,379.840982 231.755296,379.620501 C222.795141,379.20063 217.201994,378.821021 215.200196,376.393822 C214.709334,375.799484 214.448563,375.111202 214.427471,374.382659 C212.573316,368.864902 220.51915,361.311059 229.678718,352.60305 C235.473195,347.094879 242.042314,340.850497 242.788195,337.520287 C247.142681,318.077768 264.750451,305.092443 267.722469,303.018012 C276.975992,285.42561 290.235028,266.682876 297.768615,266.682876 C303.622532,266.682876 320.733687,291.796529 328.058274,302.970082 C330.823209,304.889218 348.670658,317.926308 353.057741,337.520287 C354.808355,345.334872 353.331933,354.556696 348.666823,364.93652 C349.458722,370.657502 349.859466,376.136914 349.859466,381.229048 C349.859466,394.402261 318.697375,452.442234 313.698632,455.308477 C312.772513,455.841464 311.995953,455.628653 311.593293,455.440765 C307.21388,456.761729 302.569862,457.430839 297.768615,457.430839 Z" id="Fill-9" fill="#1E1F1C"></path>
                    <path d="M298.284212,269.711699 C302.339579,269.830566 312.787661,270.185252 308.623,274.502829 C303.787239,279.575791 324.100504,317.92209 328.706174,330.909332 C333.311843,343.898492 337.56854,371.239953 334.870715,390.33929 C331.428926,414.183744 327.739789,421.365647 324.453312,424.65176 C321.166835,427.937874 314.963945,434.527356 296.828882,434.527356 C278.693818,434.527356 275.882864,428.973172 271.559057,424.65176 C267.237167,420.330348 264.583443,414.183744 261.141654,390.33929 C258.445746,371.239953 262.403323,347.303473 266.709874,333.838843 C271.016424,320.376131 292.227047,279.575791 287.389368,274.502829 C283.224708,270.185252 293.674707,269.830566 297.728157,269.711699 L297.728157,269.696361 C297.816359,269.698278 297.910313,269.702113 298.006184,269.70403 C298.103973,269.702113 298.19601,269.698278 298.284212,269.696361 L298.284212,269.711699 Z" id="Fill-11" fill="#FFBCBC"></path>
                    <path d="M287.856263,272.772922 C287.883107,272.778674 287.971309,273.033664 288.42574,273.5053 C292.09762,277.356993 285.890896,292.447425 276.002704,315.032266 C272.628025,322.739487 269.441254,330.015333 268.079878,334.277311 C263.600759,348.276845 259.967227,371.726352 262.567264,390.139324 C265.934273,413.479549 268.478704,419.537962 272.576254,423.635059 C273.084373,424.143122 273.573318,424.670357 274.068016,425.201427 C277.672786,429.078044 281.40219,433.088866 296.827923,433.088866 C314.000436,433.088866 320.007748,427.070716 323.232867,423.840201 L323.436114,423.635059 C326.252821,420.818664 329.936206,414.463083 333.447022,390.133572 C336.185114,370.746653 331.665729,343.560486 327.349591,331.389979 C326.007389,327.601554 323.332573,321.681182 320.235922,314.823289 C310.13106,292.449342 303.792033,277.485447 307.582794,273.511052 C308.113922,272.958893 308.148436,272.703903 308.148436,272.700068 C307.977785,272.466167 306.702693,271.394442 298.242987,271.149038 C298.198886,271.147121 298.156703,271.145203 298.114519,271.139452 L298.047409,271.141369 L297.909354,271.137535 C297.863336,271.143286 297.817317,271.147121 297.771299,271.149038 C289.443896,271.390607 288.076767,272.431657 287.856263,272.772922 M296.827923,435.964695 C280.14819,435.964695 275.799456,431.28668 271.960759,427.15699 C271.490988,426.652762 271.02697,426.154285 270.543777,425.669228 C265.986043,421.111999 263.205768,414.693149 259.719879,390.545774 C257.054649,371.682256 260.764879,347.701679 265.339869,333.401142 C266.747264,328.999207 269.815153,321.991771 273.368153,313.8781 C278.81941,301.423845 288.97029,278.244666 286.349162,275.495374 C284.774951,273.861903 284.847813,272.525601 285.187199,271.691611 C286.222611,269.153213 290.847455,268.484103 297.481767,268.280878 C297.577638,268.263623 297.679262,268.254037 297.775134,268.259789 L298.047409,268.267458 L298.239152,268.259789 C298.335024,268.25212 298.4424,268.261706 298.540189,268.280878 C305.170666,268.484103 309.789757,269.153213 310.82517,271.691611 C311.164555,272.525601 311.237418,273.861903 309.659372,275.501125 C306.927033,278.365451 317.290748,301.312646 322.85705,313.638448 C325.980545,320.555774 328.678371,326.527912 330.060839,330.427535 C334.474765,342.876039 339.097692,370.692971 336.294407,390.540023 C332.681967,415.565484 328.797252,422.342853 325.470509,425.669228 L325.269179,425.870536 C321.746858,429.398219 315.194995,435.964695 296.827923,435.964695" id="Fill-13" fill="#1E1E1C"></path>
                    <path d="M262.738682,169.820749 L249.895729,98.8452982 C249.43938,96.0327378 244.682233,95.3367872 242.69194,97.8540959 C230.648555,113.43917 216.892904,150.778929 234.017482,199.999695 C234.901417,202.591775 240.164766,202.396219 242.003582,199.890414 C248.03582,191.481491 259.061049,176.254937 262.075251,172.050475 C262.602545,171.348773 262.819214,170.574216 262.738682,169.820749" id="Fill-15" fill="#D46057"></path>
                    <path d="M246.165366,98.2208599 C245.43099,98.2208599 244.650596,98.4681812 244.196165,99.0433469 C241.153201,102.979398 214.961092,139.389306 235.826578,199.369505 C235.893688,199.55931 236.252248,199.797045 236.898422,199.89674 C238.244458,200.098048 239.845513,199.591903 240.457174,198.755995 C243.946899,193.89201 249.129715,186.713942 253.453522,180.728384 C256.577017,176.40122 259.251834,172.697153 260.517338,170.933311 C260.751265,170.620805 260.850971,170.342808 260.835632,170.076315 L248.008018,99.1871384 C247.915981,98.6119726 247.158596,98.3742375 246.928504,98.3148037 C246.690742,98.2534527 246.431889,98.2208599 246.165366,98.2208599 M237.488991,203.773357 C237.080578,203.773357 236.687504,203.744599 236.31744,203.687083 C234.260037,203.372659 232.760605,202.253003 232.202633,200.619532 C210.675634,138.743203 237.98944,100.803354 241.174293,96.681333 C242.681394,94.7775344 245.373467,93.9492958 247.892972,94.6030675 C250.023238,95.1571438 251.478568,96.6276509 251.789192,98.5391183 L264.645567,169.614265 C264.781705,170.877712 264.423145,172.118153 263.608237,173.203299 C262.367659,174.932631 259.689008,178.640532 256.561678,182.973447 C252.241706,188.957088 247.060807,196.129405 243.561495,201.008727 C242.117669,202.975794 239.607752,203.773357 237.488991,203.773357" id="Fill-17" fill="#1F201D"></path>
                    <path d="M337.540929,169.095274 L343.954736,97.5427395 C344.157984,94.7090897 348.734892,93.7293907 350.89392,96.1220802 C363.986139,110.944101 380.621772,147.363595 368.160387,197.475868 C367.519965,200.113961 362.369745,200.232829 360.356442,197.845891 C353.752809,189.820412 341.684498,175.291726 338.380764,171.280903 C337.805535,170.611794 337.527507,169.850658 337.540929,169.095274" id="Fill-19" fill="#D46057"></path>
                    <path d="M339.45836,169.179439 C339.467948,169.463188 339.594498,169.750771 339.836094,170.030685 C341.21281,171.704417 344.033351,175.107481 347.346672,179.1068 C352.128745,184.877629 357.936644,191.886982 361.836699,196.626348 C362.50013,197.412408 364.143369,197.836113 365.414625,197.537027 C365.888231,197.423911 366.250625,197.214934 366.296644,197.023212 C381.490368,135.92144 352.780672,101.154589 349.457764,97.3910875 C348.794333,96.6548754 347.595938,96.5532628 346.761856,96.8370112 C346.50492,96.9252033 345.902846,97.1840278 345.868333,97.6786704 L339.45836,169.179439 Z M364.567121,201.459657 C362.548066,201.459657 360.285497,200.734949 358.891525,199.080388 C354.978048,194.325685 349.173984,187.320167 344.393828,181.553171 C341.076672,177.550018 338.254214,174.14312 336.900507,172.498146 C336.053003,171.512695 335.602407,170.312516 335.623498,169.060572 L335.631168,168.924449 L342.044975,97.3699981 C342.177278,95.5083783 343.507975,93.9017487 345.513608,93.2115499 C347.946828,92.3737251 350.683002,93.0255796 352.318571,94.8373517 C355.792956,98.769568 385.68379,134.947492 370.020295,197.937726 C369.619552,199.586534 368.260093,200.805886 366.292809,201.267935 C365.759763,201.394472 365.174947,201.459657 364.567121,201.459657 Z" id="Fill-21" fill="#1F201D"></path>
                    <path d="M361.871213,179.380579 L346.22881,148.373394 L349.382984,122.048059 C349.536378,119.850926 352.002195,119.377373 352.634947,121.455638 C357.229112,137.48359 367.746222,175.87782 361.871213,179.380579" id="Fill-23" fill="#8D2828"></path>
                    <path d="M347.707724,148.113419 L361.973412,176.392401 C362.763393,172.502364 362.266779,160.272423 351.251137,121.851352 C351.189779,121.650044 351.103495,121.569521 351.082403,121.559935 C351.042137,121.563769 350.848476,121.711395 350.817798,122.146604 L347.707724,148.113419 Z M361.283137,181.405929 L344.749128,148.632986 L347.955073,121.876276 C348.068201,120.21213 349.228247,118.879663 350.769862,118.705196 C352.230944,118.53648 353.534797,119.474001 354.01032,121.036534 C369.852136,176.29654 364.588788,179.433111 362.608081,180.616035 L361.283137,181.405929 Z" id="Fill-25" fill="#1F201D"></path>
                    <path d="M238.465538,178.109271 L251.57885,147.74052 L246.601198,121.712354 C246.294409,119.534393 243.788327,119.181625 243.297465,121.279062 C239.790483,137.431633 232.329759,174.901763 238.465538,178.109271" id="Fill-27" fill="#8D2828"></path>
                    <path d="M244.820864,121.316448 C244.820864,121.316448 244.818946,121.316448 244.818946,121.316448 C244.811277,121.326034 244.742249,121.408475 244.698148,121.605948 C237.578726,154.401898 236.618093,170.370416 238.130947,175.257407 L250.084212,147.576598 L245.187093,121.98364 C245.112313,121.452571 244.886056,121.316448 244.820864,121.316448 Z M239.172112,180.10222 L237.799231,179.383263 C235.891387,178.386309 230.087323,175.353268 241.891029,120.973266 C242.263011,119.385808 243.461405,118.38502 244.951249,118.444454 C246.51779,118.515391 247.781377,119.776921 248.024891,121.513922 L253.075405,147.904443 L239.172112,180.10222 Z" id="Fill-29" fill="#13120D"></path>
                    <path d="M258.97975,140.551332 C272.116071,152.551206 323.474463,150.37708 337.874371,138.965792 C344.15204,133.992526 343.956462,138.62261 345.781857,141.895303 C357.813737,163.224365 376.888341,230.006858 378.194112,260.435042 C379.737644,296.425079 315.850757,302.011856 302.842904,302.916783 C289.838886,303.819793 213.699615,296.647477 219.843064,258.816909 C227.792733,209.887561 239.638623,160.03603 252.15753,139.609978 C254.226438,135.884821 253.254301,134.910874 258.97975,140.551332" id="Fill-31" fill="#D46057"></path>
                    <path d="M254.616827,139.019666 C254.402075,139.456792 254.152809,139.968689 253.834516,140.540021 C242.884067,158.408503 230.900122,202.713519 221.736719,259.123856 C220.572838,266.292338 222.574636,272.770622 227.690342,278.37657 C245.349883,297.732814 293.680651,301.647776 302.711752,301.00359 C320.323357,299.778487 377.681391,293.24077 376.277831,260.517675 C374.972061,230.074152 355.699961,163.376017 344.111007,142.836849 C343.68342,142.069961 343.367044,141.280067 343.087099,140.580282 C342.828246,139.939931 342.398741,138.866288 342.128383,138.682235 C342.132218,138.695656 341.353741,138.657311 339.066246,140.469083 C324.530201,151.987736 271.800845,154.861647 257.686635,141.966432 L257.634864,141.916584 C256.434552,140.735577 255.345451,139.661934 254.616827,139.019666 M300.20567,304.908966 C285.573753,304.908966 242.140103,299.906941 224.856379,280.960982 C218.912343,274.446271 216.588416,266.892428 217.949792,258.510346 C227.19181,201.63029 239.367498,156.807625 250.523112,138.607464 C250.764708,138.170338 250.985213,137.71404 251.176956,137.326761 C251.752185,136.147672 252.346589,134.930237 253.769323,134.686751 C255.464332,134.403002 256.586029,135.503486 260.298176,139.159623 C265.925836,144.269012 280.321909,147.13142 297.897082,146.62144 C315.063843,146.12488 330.288246,142.532011 336.684796,137.462884 C339.420971,135.294509 341.415099,134.533373 343.150374,134.991588 C345.192438,135.534161 345.963246,137.457132 346.645851,139.151954 C346.8932,139.77505 347.152053,140.417319 347.455007,140.961809 C359.488805,162.288954 378.75707,228.845215 380.108859,260.352794 C381.66006,296.538387 321.464228,303.543906 302.976357,304.83036 C302.228559,304.880207 301.296688,304.908966 300.20567,304.908966" id="Fill-33" fill="#1F201D"></path>
                    <path d="M271.899785,194.541372 C271.80583,194.541372 271.709959,194.535621 271.616005,194.520283 C270.569087,194.364988 269.844298,193.389124 269.99961,192.342322 C270.135748,191.427808 270.051381,190.21996 268.179968,188.962265 C260.650216,183.91231 238.055208,186.015499 235.806061,187.349883 C234.904869,187.88287 233.717979,187.616377 233.167676,186.730622 C232.617373,185.842949 232.847465,184.698369 233.721814,184.128955 C237.109914,181.931822 261.031785,179.811378 270.120408,185.64931 C273.704087,187.95189 274.097161,190.866063 273.794206,192.905984 C273.652317,193.856925 272.833573,194.541372 271.899785,194.541372" id="Fill-35" fill="#1F201D"></path>
                    <path d="M328.399385,199.307196 C327.989055,199.307196 327.574889,199.176825 327.227834,198.906497 C326.389917,198.260394 326.234605,197.054463 326.882697,196.218556 C336.811155,183.369353 353.10932,187.903576 360.938191,190.081537 C361.841301,190.332693 362.823026,190.606855 363.519053,190.764067 C363.6782,190.614524 363.866108,190.489905 364.077025,190.399796 C365.05108,189.97609 366.17853,190.430471 366.59653,191.402501 C367.16409,192.721548 366.571603,193.611138 366.291658,193.93323 C365.152704,195.235022 363.509466,194.778724 359.910448,193.776018 C352.348099,191.672829 338.27032,187.757868 329.916073,198.561397 C329.538339,199.052205 328.970779,199.307196 328.399385,199.307196 Z" id="Fill-37" fill="#1F201D"></path>
                    <path d="M232.865872,219.747052 C232.865872,209.589625 241.099322,201.355169 251.257872,201.355169 C261.418339,201.355169 269.651788,209.589625 269.651788,219.747052 C269.651788,229.904479 261.418339,238.138935 251.257872,238.138935 C241.099322,238.138935 232.865872,229.904479 232.865872,219.747052" id="Fill-39" fill="#FEFEFE"></path>
                    <path d="M236.067791,218.233216 C236.067791,209.845382 242.868919,203.045006 251.25768,203.045006 C259.648358,203.045006 266.449487,209.845382 266.449487,218.233216 C266.449487,226.621049 259.648358,233.421425 251.25768,233.421425 C242.868919,233.421425 236.067791,226.621049 236.067791,218.233216" id="Fill-41" fill="#13120D"></path>
                    <path d="M252.901494,211.35826 C252.901494,209.350931 254.529393,207.723212 256.536943,207.723212 C258.544493,207.723212 260.172392,209.350931 260.172392,211.35826 C260.172392,213.365588 258.544493,214.993307 256.536943,214.993307 C254.529393,214.993307 252.901494,213.365588 252.901494,211.35826" id="Fill-43" fill="#FEFEFE"></path>
                    <path d="M330.087491,219.747052 C330.087491,209.589625 338.322858,201.355169 348.481408,201.355169 C358.639958,201.355169 366.875324,209.589625 366.875324,219.747052 C366.875324,229.904479 358.639958,238.138935 348.481408,238.138935 C338.322858,238.138935 330.087491,229.904479 330.087491,219.747052" id="Fill-45" fill="#FEFEFE"></path>
                    <path d="M333.290368,218.233216 C333.290368,209.845382 340.091496,203.045006 348.480257,203.045006 C356.870936,203.045006 363.672064,209.845382 363.672064,218.233216 C363.672064,226.621049 356.870936,233.421425 348.480257,233.421425 C340.091496,233.421425 333.290368,226.621049 333.290368,218.233216" id="Fill-47" fill="#13120D"></path>
                    <path d="M350.124071,211.35826 C350.124071,209.350931 351.75197,207.723212 353.75952,207.723212 C355.767071,207.723212 357.39497,209.350931 357.39497,211.35826 C357.39497,213.365588 355.767071,214.993307 353.75952,214.993307 C351.75197,214.993307 350.124071,213.365588 350.124071,211.35826" id="Fill-49" fill="#FEFEFE"></path>
                    <path d="M288.634356,242.666639 C290.315943,240.607546 292.597686,239.451463 294.979136,239.451463 L303.312291,239.451463 C305.691823,239.451463 307.971649,240.607546 309.655154,242.666639 C309.655154,243.815053 308.984053,244.553183 308.123126,245.028653 C305.327511,246.56818 302.817594,248.786403 301.116833,251.907635 L300.522429,253.00045 C299.866668,254.202547 298.422842,254.202547 297.767081,253.00045 L297.172677,251.905718 C295.471916,248.786403 292.961998,246.56818 290.166384,245.028653 C289.305457,244.553183 288.634356,243.815053 288.634356,242.666639" id="Fill-51" fill="#8D2828"></path>
                    <path d="M290.158522,243.108366 C290.256311,243.321178 290.457641,243.54741 290.860302,243.769807 C294.192797,245.602669 296.741063,248.110391 298.434155,251.218203 L299.030476,252.312935 C299.089916,252.4203 299.145522,252.460561 299.158944,252.466313 C299.145522,252.460561 299.19921,252.4203 299.25865,252.312935 L299.854971,251.218203 C301.54998,248.108474 304.098246,245.602669 307.428824,243.76789 C307.833402,243.54741 308.032815,243.321178 308.130604,243.108366 C306.77498,241.672369 305.083806,240.890144 303.3121,240.890144 L294.978944,240.890144 C293.20532,240.890144 291.514146,241.672369 290.158522,243.108366 M299.145522,255.340224 C298.056421,255.340224 297.068944,254.72288 296.505219,253.689499 L295.908898,252.592849 C294.482329,249.975845 292.315632,247.853484 289.472082,246.289033 C288.00333,245.478049 287.196091,244.193513 287.196091,242.667406 C287.196091,242.335727 287.311137,242.013634 287.522054,241.756727 C289.464412,239.377458 292.183329,238.014315 294.978944,238.014315 L303.3121,238.014315 C306.105797,238.014315 308.824714,239.377458 310.768989,241.756727 C310.977989,242.013634 311.093035,242.335727 311.093035,242.667406 C311.093035,244.193513 310.285797,245.478049 308.817044,246.287116 C305.973494,247.853484 303.808714,249.975845 302.380228,252.594767 L301.783907,253.689499 C301.2221,254.72288 300.232705,255.340224 299.145522,255.340224" id="Fill-53" fill="#13120D"></path>
                    <path d="M298.856182,253.902118 C298.856182,267.77895 270.487788,269.220699 270.487788,269.220699 C270.821421,269.724928 271.174229,278.822132 271.548128,279.33403 C284.931797,297.605128 312.780566,297.605128 326.164235,279.33403 C326.538134,278.822132 326.890942,269.724928 327.222657,269.220699 C327.222657,269.220699 298.856182,267.77895 298.856182,253.902118" id="Fill-55" fill="#8D2828"></path>
                    <path d="M272.848338,278.672397 C278.957273,286.889598 288.423631,291.598288 298.856373,291.598288 C309.289116,291.598288 318.753556,286.891516 324.864409,278.672397 C324.996712,277.949606 325.173115,275.556916 325.291996,273.936866 C325.407042,272.382001 325.491409,271.304524 325.564271,270.541471 C320.308592,270.077504 303.834024,267.951308 298.856373,259.327657 C293.878722,267.951308 277.404154,270.077504 272.148475,270.541471 C272.221338,271.306442 272.305705,272.385836 272.420751,273.942618 C272.539631,275.560751 272.716035,277.949606 272.848338,278.672397 M298.856373,294.474117 C287.416979,294.474117 277.04176,289.265033 270.388274,280.183166 C270.018209,279.675103 269.922338,279.184295 269.552274,274.153512 C269.433393,272.521958 269.270411,270.30757 269.155365,269.76308 C269.001971,269.381554 269.015393,268.948262 269.205219,268.572487 C269.437228,268.112355 269.899329,267.811351 270.415118,267.78451 C270.685475,267.77109 297.4183,266.256486 297.4183,253.901927 C297.4183,253.108198 298.062557,252.464012 298.856373,252.464012 C299.65019,252.464012 300.294447,253.108198 300.294447,253.901927 C300.294447,266.256486 327.027271,267.77109 327.295711,267.78451 C327.813418,267.811351 328.273601,268.112355 328.507528,268.572487 C328.695436,268.946345 328.710776,269.379636 328.555464,269.761163 C328.442335,270.305653 328.281271,272.518124 328.160473,274.14776 C327.790409,279.184295 327.694537,279.675103 327.324473,280.181249 C320.670987,289.265033 310.295767,294.474117 298.856373,294.474117" id="Fill-57" fill="#13120D"></path>
                    <path d="M298.842184,283.987887 C286.72402,283.017774 278.097497,286.052732 278.097497,286.052732 C283.646543,291.578158 298.842184,292.50034 298.842184,292.50034 C298.842184,292.50034 314.055083,291.581992 319.604128,286.056567 C319.604128,286.056567 310.960349,283.017774 298.842184,283.987887" id="Fill-59" fill="#D382A2"></path>
                    <path d="M281.279091,286.667201 C287.457054,290.321421 298.800576,291.057633 298.930961,291.065302 C298.904117,291.057633 310.243805,290.323338 316.421768,286.671035 C313.02408,285.875389 306.696557,284.797912 298.957805,285.422926 L298.842759,285.428677 L298.727714,285.422926 C290.990879,284.79983 284.671026,285.871555 281.279091,286.667201 M298.929044,293.937296 C298.112218,293.897034 282.949173,292.913501 277.081834,287.071734 L275.459687,285.455519 L277.618715,284.698217 C277.981109,284.569763 286.626806,281.582736 298.842759,282.547097 C311.060631,281.580819 319.717832,284.57168 320.080226,284.700134 L322.241171,285.459353 L320.619025,287.075569 C314.751685,292.917335 299.573301,293.897034 298.929044,293.937296" id="Fill-61" fill="#22201D"></path>
                    <path d="M298.923675,259.540468 L298.923675,271.120471 C298.923675,271.120471 303.437308,276.406244 308.679565,271.120471 L308.679565,266.220059 L298.923675,259.540468 Z" id="Fill-63" fill="#FEFEFE"></path>
                    <path d="M300.361748,270.527092 C300.93506,271.046658 302.173721,271.982261 303.694244,272.030192 C304.904143,272.062784 306.068023,271.556639 307.241491,270.504085 L307.241491,266.978319 L300.361748,262.267712 L300.361748,270.527092 Z M303.826546,274.907938 C303.740262,274.907938 303.653978,274.907938 303.565776,274.904103 C300.193014,274.777567 297.924693,272.164397 297.830739,272.053198 C297.6064,271.794374 297.485602,271.462695 297.485602,271.12143 L297.485602,259.541427 C297.485602,259.006522 297.780886,258.517632 298.252574,258.268393 C298.72618,258.022989 299.293739,258.053665 299.736666,258.354668 L309.492555,265.034259 C309.883711,265.30267 310.117638,265.745548 310.117638,266.221018 L310.117638,271.12143 C310.117638,271.499122 309.968078,271.863394 309.701555,272.133722 C307.872326,273.974252 305.897372,274.907938 303.826546,274.907938 Z" id="Fill-65" fill="#13120D"></path>
                    <path d="M298.923675,259.540468 L298.923675,271.120471 C298.923675,271.120471 294.362106,276.406244 289.062327,271.120471 L289.062327,266.220059 L298.923675,259.540468 Z" id="Fill-67" fill="#FEFEFE"></path>
                    <path d="M290.500208,270.500059 C291.690933,271.55453 292.898915,272.054924 294.103062,272.03 C295.648511,271.980152 296.902511,271.044549 297.48541,270.521149 L297.48541,262.252183 L290.500208,266.983879 L290.500208,270.500059 Z M293.968841,274.907746 C291.880759,274.907746 289.890465,273.975977 288.045897,272.137364 C287.775539,271.868954 287.624062,271.502765 287.624062,271.121238 L287.624062,266.220826 C287.624062,265.743439 287.861823,265.298644 288.254897,265.030233 L298.116245,258.350642 C298.559171,258.053473 299.128648,258.02088 299.598419,258.270119 C300.06819,258.519357 300.361557,259.008248 300.361557,259.541235 L300.361557,271.121238 C300.361557,271.46442 300.238841,271.798017 300.012584,272.058758 C299.916713,272.171874 297.631135,274.775458 294.231529,274.903911 C294.143328,274.907746 294.055126,274.907746 293.968841,274.907746 Z" id="Fill-69" fill="#13120D"></path>
                    <path d="M272.848338,278.672397 C278.957273,286.889598 288.423631,291.598288 298.856373,291.598288 C309.289116,291.598288 318.753556,286.891516 324.864409,278.672397 C324.996712,277.949606 325.173115,275.556916 325.291996,273.936866 C325.407042,272.382001 325.491409,271.304524 325.564271,270.541471 C320.308592,270.077504 303.834024,267.951308 298.856373,259.327657 C293.878722,267.951308 277.404154,270.077504 272.148475,270.541471 C272.221338,271.306442 272.305705,272.385836 272.420751,273.942618 C272.539631,275.560751 272.716035,277.949606 272.848338,278.672397 M298.856373,294.474117 C287.416979,294.474117 277.04176,289.265033 270.388274,280.183166 C270.018209,279.675103 269.922338,279.184295 269.552274,274.153512 C269.433393,272.521958 269.270411,270.30757 269.155365,269.76308 C269.001971,269.381554 269.015393,268.948262 269.205219,268.572487 C269.437228,268.112355 269.899329,267.811351 270.415118,267.78451 C270.685475,267.77109 297.4183,266.256486 297.4183,253.901927 C297.4183,253.108198 298.062557,252.464012 298.856373,252.464012 C299.65019,252.464012 300.294447,253.108198 300.294447,253.901927 C300.294447,266.256486 327.027271,267.77109 327.295711,267.78451 C327.813418,267.811351 328.273601,268.112355 328.507528,268.572487 C328.695436,268.946345 328.710776,269.379636 328.555464,269.761163 C328.442335,270.305653 328.281271,272.518124 328.160473,274.14776 C327.790409,279.184295 327.694537,279.675103 327.324473,280.181249 C320.670987,289.265033 310.295767,294.474117 298.856373,294.474117" id="Fill-71" fill="#13120D"></path>
                    <path d="M326.480228,361.809344 C326.480228,361.809344 338.872585,345.936687 334.332108,334.046095 L349.995603,336.914254 C354.913814,355.426922 338.694264,378.525578 338.694264,378.525578" id="Fill-73" fill="#D46056"></path>
                    <path d="M338.259007,380.99093 C337.854429,380.99093 337.446017,380.864393 337.098961,380.5979 C336.257209,379.957549 336.094228,378.753535 336.73465,377.911876 C336.901466,377.693313 353.257153,355.946297 349.316833,338.359646 C349.084823,337.326265 349.734833,336.298635 350.768328,336.068569 C351.805658,335.832751 352.827649,336.48844 353.057741,337.519904 C357.393052,356.86081 340.506237,379.290356 339.785282,380.235545 C339.407549,380.730188 338.836154,380.99093 338.259007,380.99093" id="Fill-75" fill="#1E1F1C"></path>
                    <path d="M326.712429,363.327782 C326.384548,363.327782 326.05475,363.214666 325.784392,362.986517 C325.178484,362.476537 325.101787,361.567775 325.613741,360.961933 C325.738374,360.81239 338.048282,346.059389 334.288199,334.916512 C334.033181,334.163045 334.437759,333.34631 335.189392,333.091319 C335.94486,332.842081 336.75785,333.24278 337.012869,333.99433 C341.292575,346.678651 328.363337,362.165947 327.811117,362.817802 C327.52542,363.155232 327.120842,363.327782 326.712429,363.327782" id="Fill-77" fill="#1E1F1C"></path>
                    <path d="M302.001152,389.354415 C300.86028,390.176902 299.274565,389.935332 298.446235,388.800338 C297.615987,387.665344 297.863336,386.074053 298.998455,385.243897 C298.998455,385.243897 306.764051,379.636031 308.436051,378.414762 C310.109968,377.191577 307.383381,375.621374 307.383381,375.621374 C307.383381,375.621374 305.471702,375.765166 303.887904,375.053877 C302.409565,374.390519 301.191996,373.305373 301.441262,371.704495 C301.690528,370.105535 303.377868,368.464395 304.791014,369.260041 C307.318188,370.678783 313.022546,370.003922 313.022546,370.003922 C315.218005,368.934114 316.197812,368.234329 318.120995,367.914153 C321.010564,367.434849 326.480995,361.809728 326.480995,361.809728 C326.480995,361.809728 331.815288,365.601987 335.479499,370.619349 C339.14371,375.632877 338.693114,378.525961 338.693114,378.525961 C338.693114,378.525961 326.991032,387.074841 325.319032,388.294192 C323.648949,389.517378 317.526592,400.159861 317.526592,400.159861 C316.845904,401.386882 315.298537,401.833594 314.067546,401.152981 C312.836555,400.472368 312.441564,398.952013 313.072399,397.696235 C313.367684,397.105731 317.252399,390.303438 316.918766,390.065703 C316.583216,389.827968 308.445638,397.416321 308.445638,397.416321 C307.4735,398.43053 305.864776,398.466957 304.848537,397.496844 C303.832299,396.524814 303.795868,394.912433 304.768005,393.898224 C304.768005,393.898224 312.316931,384.975486 312.132858,384.668731 C311.948785,384.361976 302.833317,388.756242 302.001152,389.354415" id="Fill-79" fill="#8E2727"></path>
                    <path d="M316.961333,388.547457 C317.264287,388.547457 317.480957,388.700835 317.751315,388.894474 C319.026406,389.803236 318.71003,390.468511 314.892425,397.364748 C314.614397,397.865142 314.414984,398.225579 314.357462,398.338695 C314.06026,398.933033 314.234746,399.60406 314.763957,399.895477 C315.297003,400.188811 315.971939,399.997089 316.267223,399.462185 C317.751315,396.885443 322.690617,388.434341 324.469993,387.134467 L337.251589,377.799527 C337.151883,376.862007 336.655268,374.662956 334.319837,371.466952 C331.750479,367.950772 328.270342,365.019344 326.607929,363.711801 C324.77103,365.49098 320.963012,368.901713 318.357223,369.335004 C317.089801,369.543981 316.303654,369.948515 315.003636,370.61379 C314.599058,370.822766 314.158049,371.050915 313.651847,371.29632 C313.506122,371.367257 313.35081,371.41327 313.189746,371.432442 C312.556994,371.507214 306.938921,372.114972 304.085783,370.514094 C304.053187,370.493005 303.993746,370.460412 303.821178,370.546687 C303.378251,370.763333 302.946829,371.380677 302.862462,371.925167 C302.757003,372.603863 303.299636,373.213539 304.476939,373.740774 C305.694508,374.289099 307.259132,374.189403 307.274471,374.187486 C307.571673,374.175983 307.851618,374.229665 308.100884,374.375373 C308.620508,374.676377 310.327021,375.778778 310.413306,377.394993 C310.44015,377.881967 310.328939,378.811818 309.285856,379.574872 C307.611939,380.798057 299.840591,386.411675 299.840591,386.411675 C299.608581,386.58039 299.451352,386.837298 299.405334,387.130632 C299.361233,387.420132 299.432178,387.711549 299.606664,387.951202 C299.963306,388.44201 300.659334,388.547457 301.159783,388.188937 C301.238398,388.13142 310.919508,382.918502 312.397847,383.246346 C312.79092,383.324952 313.15715,383.579942 313.364232,383.925042 C314.010407,385.006353 314.077517,385.119469 305.865159,394.82635 C305.602471,395.106264 305.493178,395.386178 305.49893,395.681429 C305.5066,395.976681 305.627398,396.254678 305.84215,396.457903 C306.283159,396.881608 306.984939,396.862436 307.408691,396.421476 C314.257755,390.031385 316.023709,388.547457 316.961333,388.547457 M315.295085,402.907428 C314.643159,402.907428 313.981645,402.748299 313.371902,402.410868 C311.494737,401.371736 310.800627,399.01739 311.786186,397.052241 C311.849462,396.923787 312.069966,396.526923 312.376755,395.970929 C312.445783,395.848227 312.526315,395.696767 312.620269,395.531886 C311.579104,396.475158 310.478498,397.48745 309.427746,398.469066 C307.968581,399.993255 305.441407,400.054606 303.855691,398.536168 C303.084884,397.799956 302.649627,396.810671 302.624701,395.746615 C302.601691,394.680641 302.992847,393.672184 303.729141,392.903379 C305.100104,391.281411 306.545847,389.544411 307.774921,388.039394 C305.564122,389.084278 303.299636,390.211603 302.837535,390.52411 C301.060077,391.797143 298.567416,391.407948 297.284655,389.647941 C296.655738,388.789027 296.400719,387.738391 296.563701,386.685837 C296.7286,385.635201 297.290407,384.711102 298.149416,384.084171 C298.157086,384.078419 305.332113,378.896176 307.370343,377.412248 C307.261049,377.304884 307.119159,377.182182 306.971517,377.072901 C306.19304,377.076735 304.680187,376.986626 303.299636,376.365447 C300.90093,375.289887 299.704453,373.50879 300.020829,371.484207 C300.250921,370.002197 301.272912,368.587289 302.56526,367.960358 C303.55082,367.479136 304.591985,367.498309 305.495095,368.006372 C306.979187,368.838445 310.539856,368.82119 312.612599,368.604544 C313.00759,368.40707 313.362315,368.224935 313.690196,368.056219 C315.078416,367.343014 316.175186,366.781269 317.885535,366.495603 C319.5537,366.219523 323.313782,363.00243 325.449801,360.807214 C325.94258,360.297234 326.732562,360.226296 327.313544,360.636581 C327.5398,360.797628 332.881764,364.624397 336.641846,369.770213 C340.543818,375.109668 340.169919,378.39003 340.114314,378.746633 C340.054873,379.122408 339.849708,379.461756 339.541002,379.68607 L326.16692,389.456219 C325.26381,390.140666 321.624525,395.919164 318.771388,400.877093 C318.054269,402.171216 316.696728,402.907428 315.295085,402.907428" id="Fill-81" fill="#1E1F1C"></path>
                    <path d="M473.72168,40.5348048 C473.72168,40.5348048 541.192246,108.291245 446.461562,169.203213 C446.461562,169.203213 453.27803,151.965496 452.595424,140.471768 C451.914736,128.978039 479.845955,131.048636 473.72168,40.5348048" id="Fill-83" fill="#020303"></path>
                    <mask id="mask-4" fill="white">
                        <use xlink:href="#path-3"></use>
                    </mask>
                    <g id="Clip-86"></g>
                    <path d="M488.602288,377.446862 L305.086874,377.446862 L305.086874,271.620202 C305.086874,264.330935 310.998314,258.420149 318.288387,258.420149 L475.400775,258.420149 C482.692765,258.420149 488.602288,264.330935 488.602288,271.620202 L488.602288,377.446862 Z" id="Fill-88" fill="#ECECEB" mask="url(#mask-4)"></path>
                    <path d="M307.004497,375.529643 L486.685049,375.529643 L486.685049,271.620202 C486.685049,265.398826 481.62303,260.337368 475.400966,260.337368 L318.288579,260.337368 C312.066515,260.337368 307.004497,265.398826 307.004497,271.620202 L307.004497,375.529643 Z M490.519911,379.364081 L303.169635,379.364081 L303.169635,271.620202 C303.169635,263.284134 309.951588,256.50293 318.288579,256.50293 L475.400966,256.50293 C483.737957,256.50293 490.519911,263.284134 490.519911,271.620202 L490.519911,379.364081 Z" id="Fill-89" fill="#1F201D" mask="url(#mask-4)"></path>
                    <path d="M502.470108,377.446862 L291.219053,377.446862 L291.219053,378.060372 C291.219053,385.351556 297.130494,391.262343 304.422484,391.262343 L489.268595,391.262343 C496.560586,391.262343 502.470108,385.351556 502.470108,378.060372 L502.470108,377.446862 Z" id="Fill-90" fill="#ECECEB" mask="url(#mask-4)"></path>
                    <path d="M293.369836,379.504422 C294.079285,384.970413 298.765487,389.20555 304.421909,389.20555 L489.26802,389.20555 C494.926359,389.20555 499.610643,384.970413 500.320093,379.504422 L293.369836,379.504422 Z M489.26802,393.319902 L304.421909,393.319902 C296.008221,393.319902 289.162992,386.47543 289.162992,378.060756 L289.162992,377.447245 C289.162992,376.310334 290.083359,375.390069 291.218478,375.390069 L502.469533,375.390069 C503.60657,375.390069 504.528854,376.310334 504.528854,377.447245 L504.528854,378.060756 C504.528854,386.47543 497.681708,393.319902 489.26802,393.319902 Z" id="Fill-91" fill="#1F201D" mask="url(#mask-4)"></path>
                    <path d="M400.140262,311.065357 L395.093583,311.065357 C394.608473,309.297681 394.608473,307.15423 395.093583,304.636921 C395.822207,300.861917 395.728253,298.885264 397.672528,297.68125 C399.616803,296.47532 402.153564,298.559337 402.663601,299.943569 C403.173638,301.331636 399.806628,301.741921 399.14895,304.636921 C398.711775,306.567561 399.041573,308.709095 400.140262,311.065357" id="Fill-92" fill="#FCF8D8" mask="url(#mask-4)"></path>
                </g>
                <g id="Group-96" transform="translate(394.823529, 296.895954)">
                    <mask id="mask-6" fill="white">
                        <use xlink:href="#path-5"></use>
                    </mask>
                    <g id="Clip-95"></g>
                    <path d="M5.80042639,14.1805631 L0.402882256,14.1805631 C-0.115954623,12.3832744 -0.115954623,10.2039157 0.402882256,7.64443628 C1.18216294,3.80619181 1.08167675,1.7964254 3.16112574,0.572241789 C5.24057474,-0.653891159 7.95370197,1.46503812 8.49919845,2.8724594 C9.04469493,4.28377936 5.44359786,4.70093747 4.7401945,7.64443628 C4.27262609,9.6074186 4.62535314,11.784828 5.80042639,14.1805631" id="Fill-94" fill="#323232" mask="url(#mask-6)"></path>
                </g>
            </g>
            <g id="Group-123" transform="translate(210.000000, 303.000000)">
                <path d="M188.808593,0.0787688009 C179.921188,0.0787688009 172.715183,6.26857139 172.715183,13.9047155 C172.715183,21.5389338 179.921188,13.0592509 188.808593,13.0592509 C197.695998,13.0592509 204.902002,21.5389338 204.902002,13.9047155 C204.902002,6.26857139 197.695998,0.0787688009 188.808593,0.0787688009" id="Fill-97" fill="#757575"></path>
                <path d="M188.808593,7.87071725 C180.682142,7.87071725 174.094893,11.3411666 174.094893,14.7230252 C174.094893,25.1921499 185.244023,33.6795363 188.808593,33.6795363 C192.371241,33.6795363 203.522292,25.1921499 203.522292,14.7230252 C203.522292,11.1447261 196.935044,7.87071725 188.808593,7.87071725" id="Fill-99" fill="#323232"></path>
                <path d="M39.0167107,88.7838844 L14.5893173,88.7838844 C10.4559533,88.7838844 7.1066025,85.4270624 7.1066025,81.2844782 C7.1066025,73.838997 13.1289004,67.8032654 20.5578103,67.8032654 L33.0501392,67.8032654 C40.4771276,67.8032654 46.4994255,73.838997 46.4994255,81.2844782 C46.4994255,85.4270624 43.1500747,88.7838844 39.0167107,88.7838844" id="Fill-101" fill="#ECECEB"></path>
                <path d="M20.5568495,69.7301159 C14.200193,69.7301159 9.02724282,74.9126793 9.02724282,81.2854412 C9.02724282,84.3591577 11.5234027,86.8589597 14.5902781,86.8589597 L39.0157499,86.8589597 C42.0826253,86.8589597 44.5768636,84.3591577 44.5768636,81.2854412 C44.5768636,74.9126793 39.4077566,69.7301159 33.0491784,69.7301159 L20.5568495,69.7301159 Z M39.0157499,90.7107349 L14.5902781,90.7107349 C9.40387664,90.7107349 5.18404058,86.4814858 5.18404058,81.2854412 C5.18404058,72.7903512 12.080667,65.8783408 20.5568495,65.8783408 L33.0491784,65.8783408 C41.525361,65.8783408 48.4200658,72.7903512 48.4200658,81.2854412 C48.4200658,86.4814858 44.2021513,90.7107349 39.0157499,90.7107349 Z" id="Fill-103" fill="#1F201D"></path>
                <path d="M10.7789744,69.9444671 C10.7789744,72.5213047 8.69595879,74.6108927 6.12485649,74.6108927 C3.55375419,74.6108927 1.47073857,72.5213047 1.47073857,69.9444671 C1.47073857,67.3676296 3.55375419,65.2799675 6.12485649,65.2799675 C8.69595879,65.2799675 10.7789744,67.3676296 10.7789744,69.9444671" id="Fill-107" fill="#8E2727"></path>
                <path d="M6.12428001,66.7245757 C4.35256377,66.7245757 2.91136293,68.1689914 2.91136293,69.9446597 C2.91136293,71.7222539 4.35256377,73.1666696 6.12428001,73.1666696 C7.89599624,73.1666696 9.33719708,71.7222539 9.33719708,69.9446597 C9.33719708,68.1689914 7.89599624,66.7245757 6.12428001,66.7245757 M6.12428001,76.0555009 C2.76339964,76.0555009 0.0289612485,73.3149629 0.0289612485,69.9446597 C0.0289612485,66.5762824 2.76339964,63.8357444 6.12428001,63.8357444 C9.48516037,63.8357444 12.2195988,66.5762824 12.2195988,69.9446597 C12.2195988,73.3149629 9.48516037,76.0555009 6.12428001,76.0555009" id="Fill-109" fill="#1E1F1C"></path>
                <path d="M21.8356751,62.4816529 C21.8356751,65.9829164 19.003235,68.8216747 15.5097642,68.8216747 C12.018215,68.8216747 9.18577491,65.9829164 9.18577491,62.4816529 C9.18577491,58.9823152 12.018215,56.1435569 15.5097642,56.1435569 C19.003235,56.1435569 21.8356751,58.9823152 21.8356751,62.4816529" id="Fill-111" fill="#8E2727"></path>
                <path d="M15.510725,57.5879726 C12.8166402,57.5879726 10.626015,59.7834844 10.626015,62.4816529 C10.626015,65.1798213 12.8166402,67.377259 15.510725,67.377259 C18.2028882,67.377259 20.3954351,65.1798213 20.3954351,62.4816529 C20.3954351,59.7834844 18.2028882,57.5879726 15.510725,57.5879726 M15.510725,70.2660904 C11.2274761,70.2660904 7.74361327,66.7744562 7.74361327,62.4816529 C7.74361327,58.1888495 11.2274761,54.6991413 15.510725,54.6991413 C19.7939739,54.6991413 23.2778367,58.1888495 23.2778367,62.4816529 C23.2778367,66.7744562 19.7939739,70.2660904 15.510725,70.2660904" id="Fill-113" fill="#1E1F1C"></path>
                <path d="M34.4865361,60.5557653 C34.4865361,64.0570289 31.654096,66.8957871 28.1606252,66.8957871 C24.6671543,66.8957871 21.8366359,64.0570289 21.8366359,60.5557653 C21.8366359,57.0564276 24.6671543,54.2176694 28.1606252,54.2176694 C31.654096,54.2176694 34.4865361,57.0564276 34.4865361,60.5557653" id="Fill-115" fill="#8E2727"></path>
                <path d="M28.1606252,55.6620851 C25.468462,55.6620851 23.2759151,57.8575969 23.2759151,60.5557653 C23.2759151,63.2539338 25.468462,65.4513715 28.1606252,65.4513715 C30.85471,65.4513715 33.0453352,63.2539338 33.0453352,60.5557653 C33.0453352,57.8575969 30.85471,55.6620851 28.1606252,55.6620851 M28.1606252,68.3402028 C23.8773763,68.3402028 20.3935135,64.8485687 20.3935135,60.5557653 C20.3935135,56.262962 23.8773763,52.7732537 28.1606252,52.7732537 C32.4438741,52.7732537 35.9277369,56.262962 35.9277369,60.5557653 C35.9277369,64.8485687 32.4438741,68.3402028 28.1606252,68.3402028" id="Fill-117" fill="#1E1F1C"></path>
                <path d="M48.0363221,62.4816529 C48.0363221,66.2313559 45.0021139,69.2723324 41.2607565,69.2723324 C37.5193991,69.2723324 34.4871126,66.2313559 34.4871126,62.4816529 C34.4871126,58.7319498 37.5193991,55.6928993 41.2607565,55.6928993 C45.0021139,55.6928993 48.0363221,58.7319498 48.0363221,62.4816529" id="Fill-119" fill="#8E2727"></path>
                <path d="M41.2609487,57.2399647 C38.3766254,57.2399647 36.0303504,59.5914734 36.0303504,62.4822306 C36.0303504,65.3749137 38.3766254,67.7244966 41.2609487,67.7244966 C44.145272,67.7244966 46.4934685,65.3749137 46.4934685,62.4822306 C46.4934685,59.5914734 44.145272,57.2399647 41.2609487,57.2399647 M41.2609487,70.8213237 C36.6740868,70.8213237 32.9423374,67.0793242 32.9423374,62.4822306 C32.9423374,57.8851371 36.6740868,54.1450634 41.2609487,54.1450634 C45.8478105,54.1450634 49.5795599,57.8851371 49.5795599,62.4822306 C49.5795599,67.0793242 45.8478105,70.8213237 41.2609487,70.8213237" id="Fill-121" fill="#1E1F1C"></path>
            </g>
        </g>
        <text id="Chatbot-Integration" font-family="PTMono-Regular, PT Mono" font-size="50" font-weight="normal" letter-spacing="-1.38888788" fill="#FFFFFF">
            <tspan x="471" y="205">Chatbot Integration with Slack</tspan>
        </text>
        <text id="Conversational-UX" font-family="PTMono-Bold, PT Mono" font-size="80" font-weight="bold" letter-spacing="-2.22222066" fill="#FFFFFF">
            <tspan x="511" y="126">Conversational UX</tspan>
        </text>
    </g>
</svg>